#!OML:ASF E:\Style4\Style4.ASF
:FULLY-SPECIFIED
:DEGREES
1674
root 0.115389 17.7091 -1.51925 0.965567 -0.534808 1.83313
lowerback 7.64022 2.88902 -0.896627
upperback 2.44604 3.77404 0.14683
thorax -1.81631 1.88056 0.309871
lowerneck -1.47955 -5.74008 -6.4999
upperneck 9.95391 -7.67529 3.1805
head 3.96119 -3.91168 1.88833
rclavicle -3.23025e-014 -5.1684e-015
rhumerus 58.7781 67.6828 -37.3586
rradius 61.6974
rwrist 18.3376
rhand -30.2177 32.2014
rfingers 7.12502
rthumb -3.5277 2.25087
lclavicle -3.23025e-014 -5.1684e-015
lhumerus 104.577 -50.4732 4.55212
lradius 86.3928
lwrist 11.1356
lhand -15.3405 23.3371
lfingers 7.12502
lthumb 10.8363 53.0375
rfemur -15.9649 2.86734 16.0543
rtibia 34.6488
rfoot -18.4627 -12.0529
rtoes -11.8427
lfemur -14.9133 -1.61362 -20.8998
ltibia 33.0693
lfoot -19.0091 8.01626
ltoes -15.0553
1675
root 0.118006 17.7076 -1.51693 0.9908 -0.539254 1.91685
lowerback 7.56812 2.8799 -0.953153
upperback 2.47827 3.75811 0.120777
thorax -1.74481 1.87248 0.321042
lowerneck -1.47054 -5.7403 -6.45104
upperneck 9.93241 -7.67269 3.12449
head 3.9457 -3.91058 1.86121
rclavicle 2.9768e-014 -4.37326e-015
rhumerus 58.8466 67.5403 -37.1357
rradius 61.6733
rwrist 18.2997
rhand -30.3306 32.1399
rfingers 7.12502
rthumb -3.63668 2.1912
lclavicle 2.9768e-014 -4.37326e-015
lhumerus 104.173 -50.4797 4.60489
lradius 86.2266
lwrist 11.0442
lhand -15.4998 22.3088
lfingers 7.12502
lthumb 10.6827 52.0172
rfemur -16.0467 2.84174 15.9538
rtibia 34.7614
rfoot -18.4771 -12.094
rtoes -12.1073
lfemur -14.9615 -1.60883 -21.0077
ltibia 33.1361
lfoot -19.0604 7.97607
ltoes -14.8437
1676
root 0.121928 17.7048 -1.51432 0.985223 -0.596184 2.02707
lowerback 7.53412 2.88847 -1.00462
upperback 2.50983 3.76546 0.0852747
thorax -1.69443 1.876 0.31549
lowerneck -1.46397 -5.74291 -6.49275
upperneck 9.9529 -7.67378 3.11425
head 3.9536 -3.91321 1.86509
rclavicle -5.88403e-014 -1.43125e-014
rhumerus 58.9849 67.3703 -36.8153
rradius 61.5658
rwrist 18.298
rhand -30.6493 32.0313
rfingers 7.12502
rthumb -3.94452 2.08807
lclavicle -5.88403e-014 -1.43125e-014
lhumerus 103.833 -50.5619 4.62751
lradius 86.0965
lwrist 10.7387
lhand -15.7143 22.2395
lfingers 7.12502
lthumb 10.4758 51.9584
rfemur -16.1136 2.79077 15.8154
rtibia 34.8763
rfoot -18.498 -12.0506
rtoes -12.4124
lfemur -14.9748 -1.57531 -21.1488
ltibia 33.2065
lfoot -19.1185 7.97831
ltoes -14.7297
1677
root 0.125364 17.7 -1.51326 0.969393 -0.67474 2.0814
lowerback 7.52726 2.9 -1.00187
upperback 2.53649 3.78058 0.0605447
thorax -1.66151 1.88344 0.288516
lowerneck -1.46518 -5.73773 -6.54913
upperneck 9.96381 -7.66661 3.14052
head 3.96199 -3.91085 1.88427
rclavicle -3.55825e-014 1.78906e-014
rhumerus 59.1147 67.1973 -36.5139
rradius 61.442
rwrist 18.3135
rhand -31.034 31.7696
rfingers 7.12502
rthumb -4.31599 1.83355
lclavicle -3.55825e-014 1.78906e-014
lhumerus 103.431 -50.6767 4.65287
lradius 86.0409
lwrist 10.3747
lhand -16.0277 22.6037
lfingers 7.12502
lthumb 10.1734 52.3377
rfemur -16.1767 2.75369 15.7352
rtibia 34.9909
rfoot -18.5275 -11.9643
rtoes -12.3791
lfemur -14.9829 -1.52527 -21.2286
ltibia 33.2791
lfoot -19.1062 8.02763
ltoes -14.8457
1678
root 0.128401 17.6967 -1.51334 0.975757 -0.754859 2.05363
lowerback 7.50264 2.89478 -0.932523
upperback 2.56287 3.7793 0.0723948
thorax -1.61706 1.88271 0.264466
lowerneck -1.47571 -5.71134 -6.56856
upperneck 9.95166 -7.62575 3.1038
head 3.95637 -3.89258 1.87716
rclavicle -2.48481e-014 -3.97569e-016
rhumerus 59.1202 66.9833 -36.2875
rradius 61.3405
rwrist 18.2902
rhand -31.055 31.9895
rfingers 7.12502
rthumb -4.33621 2.0539
lclavicle -2.48481e-014 -3.97569e-016
lhumerus 102.733 -50.7919 4.92689
lradius 85.8176
lwrist 9.99249
lhand -16.2336 22.0426
lfingers 7.12502
lthumb 9.97482 51.7862
rfemur -16.2579 2.76394 15.7524
rtibia 35.1018
rfoot -18.5413 -11.9189
rtoes -12.4602
lfemur -15.0366 -1.47754 -21.2083
ltibia 33.3733
lfoot -19.1905 8.11162
ltoes -15.1029
1679
root 0.131981 17.6932 -1.51383 0.998029 -0.817718 2.0548
lowerback 7.46783 2.90033 -0.868075
upperback 2.58498 3.79169 0.0680899
thorax -1.57075 1.88889 0.225781
lowerneck -1.42688 -5.69193 -6.54266
upperneck 9.88694 -7.59841 3.05766
head 3.9182 -3.87977 1.86014
rclavicle -2.33572e-015 3.97569e-016
rhumerus 58.7662 66.6909 -36.3495
rradius 61.175
rwrist 18.3575
rhand -30.8451 32.511
rfingers 7.12502
rthumb -4.13355 2.5714
lclavicle -2.33572e-015 3.97569e-016
lhumerus 101.983 -50.9269 5.2527
lradius 85.5867
lwrist 9.55377
lhand -16.2616 21.6363
lfingers 7.12502
lthumb 9.94782 51.3813
rfemur -16.3614 2.76441 15.7305
rtibia 35.2136
rfoot -18.6207 -11.8045
rtoes -12.34
lfemur -15.1148 -1.40759 -21.2196
ltibia 33.4715
lfoot -19.2136 8.18759
ltoes -15.5583
1680
root 0.134254 17.688 -1.51297 0.946354 -0.900543 2.05523
lowerback 7.52278 2.91918 -0.831707
upperback 2.59003 3.81877 0.0726206
thorax -1.59421 1.90241 0.204956
lowerneck -1.37459 -5.67051 -6.5049
upperneck 9.92375 -7.56834 2.98647
head 3.9134 -3.86683 1.83192
rclavicle 2.05742e-014 -1.19271e-015
rhumerus 58.1406 66.3893 -36.6746
rradius 60.9473
rwrist 18.3645
rhand -30.5567 32.6931
rfingers 7.12502
rthumb -3.85506 2.74818
lclavicle 2.05742e-014 -1.19271e-015
lhumerus 101.18 -51.0694 5.52106
lradius 85.4398
lwrist 8.99329
lhand -16.3905 21.6922
lfingers 7.12502
lthumb 9.82339 51.4431
rfemur -16.3809 2.77274 15.7263
rtibia 35.3325
rfoot -18.6729 -11.742
rtoes -12.5601
lfemur -15.0906 -1.33992 -21.2318
ltibia 33.5514
lfoot -19.1717 8.16512
ltoes -15.5034
1681
root 0.13598 17.6825 -1.51152 0.901363 -1.00332 2.11042
lowerback 7.54924 2.9372 -0.865482
upperback 2.60117 3.83994 0.0740857
thorax -1.59988 1.91284 0.222248
lowerneck -1.40506 -5.66622 -6.53857
upperneck 10.0481 -7.55618 2.93842
head 3.96219 -3.8645 1.82036
rclavicle -2.5842e-014 1.78906e-014
rhumerus 57.5632 66.0145 -36.9312
rradius 60.6612
rwrist 18.3228
rhand -30.2427 33.2795
rfingers 7.12502
rthumb -3.55181 3.32931
lclavicle -2.5842e-014 1.78906e-014
lhumerus 100.113 -51.193 5.93598
lradius 85.278
lwrist 8.38502
lhand -16.6853 21.8675
lfingers 7.12502
lthumb 9.539 51.6316
rfemur -16.4149 2.79215 15.6645
rtibia 35.4568
rfoot -18.6959 -11.7409
rtoes -12.9739
lfemur -15.0574 -1.3139 -21.2955
ltibia 33.6169
lfoot -19.2026 8.09603
ltoes -14.8837
